<?xml version="1.0" encoding="utf-8"?>
<!-- Generator: Adobe Illustrator 19.0.0, SVG Export Plug-In . SVG Version: 6.00 Build 0)  -->
<svg version="1.1" id="Layer_1" xmlns="http://www.w3.org/2000/svg" xmlns:xlink="http://www.w3.org/1999/xlink" x="0px" y="0px"
	 viewBox="0 0 17.7 23.8" style="enable-background:new 0 0 17.7 23.8;" xml:space="preserve">
<style type="text/css">
	.st0{fill:none;stroke:#3DC2DB;stroke-miterlimit:10;}
</style>
<path id="XMLID_28_" class="st0" d="M9.4,22.1l5.8-8.6c0,0,0.1-0.1,0.1-0.1l0-0.1l0,0c0.8-1.2,1.2-2.6,1.2-4.1
	c0-4.2-3.4-7.6-7.5-7.6c-4.1,0-7.5,3.4-7.5,7.6c0,1.5,0.4,2.9,1.2,4.1l0,0l0.1,0.1c0,0,0,0.1,0.1,0.1L9,22.7L9.4,22.1 M9,12.2
	c-1.6,0-2.9-1.3-2.9-3c0-1.6,1.3-3,2.9-3c1.6,0,2.9,1.3,2.9,3C12,10.8,10.7,12.2,9,12.2z"/>
</svg>
